# xmcd CD database file
#
# Track frame offsets:
#	150
#	11492
#	25427
#	37347
#	48162
#	59935
#	70002
#	89920
#	108135
#	119787
#	129110
#	139150
#	153862
#	167975
#	182027
#	195515
#	206955
#	219130
#	230977
#	245190
#	257835
#	271307
#	283965
#	296650
#
# Disc length: 4095 seconds
#
# Revision: 1
# Processed by: cddbd v1.5.2PL0 Copyright (c) Steve Scherf et al.
# Submitted via: CDex 1.51
#
DISCID=850ffd18
DTITLE=Various Artist - VEE JAY,THE CHICAGO BLACK MUSIC
DYEAR=1997
DGENRE=Blues
TTITLE0=Coming Home - Elmore James
TTITLE1=It Hurts Me Too - Elmore James
TTITLE2=Knocking At Your Door - Elmore James
TTITLE3=King's Highway - Big Joe Williams
TTITLE4=Baby Left Town - Big Joe Williams
TTITLE5=Dimples - John Lee Hooker
TTITLE6=House Rent Boggie - John Lee Hooker
TTITLE7=Moanin' Blues - John Lee Hooker
TTITLE8=Boom Boom - John Lee Hooker
TTITLE9=Do What I Say - J.B.Lenoir
TTITLE10=Oh Babe - J.B.Lenoir
TTITLE11=Schooldays On My Mind - Floyd Jones
TTITLE12=Ain't Times Hard - Floyd Jones
TTITLE13=Floyd's Blues - Floyd Jones
TTITLE14=Any Old Lonesome Day - Floyd Jones
TTITLE15=Someone To Love Me - Snooky Pryor
TTITLE16=Judgement Day - Snooky Pryor
TTITLE17=Boggie In The Dark - Jimmy Reed
TTITLE18=Jimmy Reed - You Don't Have To Go - Jimmy Reed
TTITLE19=High And Lonesome - Jimmy Reed
TTITLE20=Big Town Playboy - Eddie Taylor
TTITLE21=I'm Sittin' Here - Eddie Taylor
TTITLE22=Cry For Me Baby - Elmore James
TTITLE23=Take Me Where You Go - Elmore James
EXTD=YEAR: 1997
EXTT0=
EXTT1=
EXTT2=
EXTT3=
EXTT4=
EXTT5=
EXTT6=
EXTT7=
EXTT8=
EXTT9=
EXTT10=
EXTT11=
EXTT12=
EXTT13=
EXTT14=
EXTT15=
EXTT16=
EXTT17=
EXTT18=
EXTT19=
EXTT20=
EXTT21=
EXTT22=
EXTT23=
PLAYORDER=
